<svg height="384pt" viewBox="0 0 384 384" width="384pt" xmlns="http://www.w3.org/2000/svg"><path d="m192 0c-105.871094 0-192 86.128906-192 192s86.128906 192 192 192c105.863281 0 192-86.128906 192-192s-86.136719-192-192-192zm-16 351.191406c-75.472656-7.535156-135.65625-67.71875-143.191406-143.191406h97.296875c5.804687 22.433594 23.460937 40.089844 45.894531 45.894531zm-16-159.191406c0-17.648438 14.351562-32 32-32s32 14.351562 32 32-14.351562 32-32 32-32-14.351562-32-32zm48 159.191406v-97.296875c22.433594-5.804687 40.089844-23.460937 45.894531-45.894531h97.296875c-7.527344 75.472656-67.71875 135.65625-143.191406 143.191406zm45.894531-175.191406c-7.132812-27.558594-32.132812-48-61.894531-48s-54.761719 20.441406-61.894531 48h-97.296875c8.054687-80.734375 76.367187-144 159.191406-144s151.136719 63.265625 159.191406 144zm0 0"/></svg>